<?xml version="1.0" standalone="no"?>
<!DOCTYPE svg PUBLIC "-//W3C//DTD SVG 20010904//EN"
 "http://www.w3.org/TR/2001/REC-SVG-20010904/DTD/svg10.dtd">
<svg version="1.0" xmlns="http://www.w3.org/2000/svg"
 width="139.000000pt" height="109.000000pt" viewBox="0 0 139.000000 109.000000"
 preserveAspectRatio="xMidYMid meet">
<metadata>
Created by potrace 1.10, written by Peter Selinger 2001-2011
</metadata>
<g transform="translate(0.000000,109.000000) scale(0.100000,-0.100000)"
fill="#000000" stroke="none">
<path d="M1351 1011 c1 -43 -1 -83 -4 -89 -4 -5 0 -13 9 -16 15 -6 15 -8 0
-31 -9 -13 -12 -26 -8 -29 6 -3 7 -35 3 -79 0 -8 -12 -20 -26 -27 -14 -7 -23
-15 -20 -18 2 -3 11 1 20 8 8 7 24 10 35 7 19 -5 20 0 20 174 0 156 -2 179
-16 179 -13 0 -15 -13 -13 -79z"/>
<path d="M336 1040 c-64 -53 -96 -105 -123 -200 -10 -32 -14 -170 -6 -170 5 0
9 30 10 68 2 113 59 228 146 295 35 26 37 27 46 8 9 -15 6 -22 -12 -34 -45
-30 -81 -74 -110 -137 -27 -56 -31 -76 -31 -150 0 -70 4 -95 25 -140 56 -120
136 -179 253 -187 61 -4 82 -1 122 16 37 17 49 19 56 9 4 -7 8 -16 8 -19 0 -8
-69 -39 -111 -50 -30 -8 -28 -8 11 -3 67 8 106 34 102 68 -2 20 1 27 10 24 7
-3 18 1 23 8 6 6 21 15 34 19 19 6 23 4 18 -8 -4 -11 0 -13 15 -9 30 7 48 -23
48 -79 0 -39 3 -48 21 -52 16 -4 19 -2 13 11 -4 9 -8 40 -8 68 -1 51 -27 101
-47 88 -4 -2 -25 3 -46 12 -53 22 -135 44 -145 38 -4 -3 -8 0 -8 6 0 6 -4 8
-10 5 -15 -9 -12 -25 5 -25 18 0 20 -26 3 -33 -8 -3 -6 -6 5 -6 9 -1 17 4 17
9 0 7 19 8 53 4 52 -7 89 -24 51 -24 -12 0 -24 -3 -28 -7 -12 -12 -80 -32 -89
-26 -6 3 -7 1 -3 -5 11 -17 -54 -32 -122 -27 -74 6 -124 29 -175 81 -63 66
-81 115 -82 224 0 102 13 160 24 105 9 -44 75 -87 124 -79 23 4 43 1 53 -6 12
-11 13 -10 8 4 -5 13 -17 16 -53 15 -32 -2 -56 4 -76 17 -41 25 -45 33 -45 80
0 32 7 49 36 82 19 23 43 42 52 43 16 0 103 37 92 38 -3 1 -19 -3 -36 -8 -29
-8 -30 -7 -26 15 10 54 -40 67 -92 24z"/>
<path d="M515 997 c-10 -7 -25 -18 -33 -25 -8 -7 -23 -10 -36 -6 -20 6 -20 5
-2 -8 17 -14 16 -15 -15 -31 -19 -9 -33 -19 -31 -24 2 -4 -1 -9 -7 -11 -6 -2
-8 3 -5 12 11 28 -4 17 -19 -13 -19 -39 -12 -45 20 -15 14 13 32 24 39 24 7 0
21 14 31 30 22 38 68 44 124 16 15 -7 39 -11 53 -9 21 4 27 0 41 -33 15 -37
12 -74 -6 -74 -5 0 -9 11 -9 24 0 14 -3 27 -7 29 -10 7 0 -154 10 -170 14 -23
42 -14 78 25 50 52 69 83 69 110 0 23 -2 24 -44 18 -37 -6 -48 -4 -65 13 -12
12 -21 27 -21 35 0 20 -41 48 -54 37 -18 -14 -97 25 -90 44 7 18 6 18 -21 2z
m285 -150 c0 -18 -70 -117 -92 -131 -26 -16 -43 7 -43 55 0 27 6 45 18 53 9 7
15 15 13 17 -2 2 9 4 25 5 16 1 29 -3 29 -7 0 -5 5 -9 11 -9 5 0 8 4 5 9 -4 5
0 12 6 14 22 9 28 7 28 -6z"/>
<path d="M465 910 c-3 -5 -1 -18 5 -29 5 -11 10 -32 10 -46 0 -29 14 -60 40
-90 18 -21 33 -108 32 -185 l-1 -45 10 45 c5 25 6 61 3 80 -4 19 -6 44 -5 56
1 11 -9 31 -22 45 -29 29 -47 79 -47 130 0 38 -13 58 -25 39z"/>
<path d="M572 868 c-1 -7 -5 -29 -8 -49 -4 -26 -1 -39 12 -50 16 -13 16 -12 4
7 -10 17 -10 28 -1 54 6 19 7 38 3 42 -5 5 -9 3 -10 -4z"/>
<path d="M975 830 c-33 -4 -73 -14 -90 -22 -16 -9 -47 -24 -67 -33 -21 -10
-38 -21 -38 -26 0 -8 38 5 135 45 20 9 34 12 31 8 -2 -4 37 -7 87 -8 51 -1 83
2 72 6 -11 4 -33 5 -49 2 -26 -5 -28 -4 -17 17 7 11 8 20 4 19 -4 0 -35 -4
-68 -8z"/>
<path d="M535 796 c-6 -13 -5 -21 3 -24 7 -2 12 -10 12 -18 0 -8 9 -14 20 -14
10 0 25 -10 31 -22 7 -13 18 -27 25 -31 20 -11 17 -27 -12 -83 -25 -48 -46
-104 -39 -104 7 0 75 146 75 160 0 24 -35 70 -68 90 -17 10 -32 29 -34 42 -4
22 -5 22 -13 4z"/>
<path d="M1080 739 c0 -5 4 -8 9 -4 5 3 12 1 16 -5 4 -6 13 -7 21 -2 8 5 28 6
45 4 27 -4 28 -6 12 -17 -13 -10 -20 -10 -25 -2 -5 9 -10 9 -18 1 -8 -8 -6
-13 9 -17 12 -3 24 -1 27 4 3 5 14 9 24 9 24 0 36 20 19 31 -20 13 -139 11
-139 -2z"/>
<path d="M735 700 c-12 -23 -13 -30 -3 -31 7 0 25 -2 41 -4 15 -2 27 0 27 5 0
5 -12 11 -27 13 -26 4 -27 5 -6 12 32 11 38 35 8 35 -17 0 -29 -9 -40 -30z"/>
<path d="M467 687 c-10 -15 -12 -29 -6 -38 14 -22 10 -39 -8 -39 -15 0 -16 -2
-3 -10 13 -8 12 -11 -5 -24 -20 -15 -20 -15 3 -16 14 0 20 -4 17 -11 -4 -5 1
-37 11 -70 13 -42 22 -58 32 -54 7 3 19 5 25 5 7 0 18 10 26 23 13 21 13 22
-6 5 -29 -26 -42 -22 -60 19 -17 42 -24 191 -10 211 6 7 8 15 5 18 -3 2 -12
-6 -21 -19z"/>
<path d="M1359 693 c8 -16 4 -18 -47 -15 -36 2 -70 -2 -92 -12 l-35 -15 36 -1
c19 0 41 -6 48 -12 11 -10 14 -10 18 0 3 6 17 12 31 12 l27 0 -25 -20 c-14
-11 -20 -20 -15 -21 6 -1 -3 -5 -20 -9 l-30 -8 27 -1 c15 0 30 4 33 9 12 19
38 11 32 -10 -3 -11 -1 -20 5 -20 19 0 2 -35 -17 -36 -11 -1 -27 -2 -36 -3 -9
-1 -22 -12 -29 -26 -8 -16 -25 -27 -46 -31 -18 -3 -38 -12 -44 -19 -9 -11 -7
-12 9 -8 15 4 21 1 21 -12 0 -12 5 -15 16 -11 9 3 20 6 25 6 4 0 6 6 3 14 -6
15 26 32 35 19 3 -4 25 -9 47 -11 l42 -3 1 130 c1 112 -1 131 -14 131 -12 0
-13 -4 -6 -17z"/>
<path d="M935 670 c-3 -6 1 -13 9 -16 8 -3 22 -31 31 -61 9 -31 23 -66 31 -78
8 -12 12 -30 8 -39 -9 -24 -23 -20 -16 6 4 17 2 20 -11 15 -10 -4 -17 -1 -17
5 0 6 -3 8 -6 5 -4 -4 -1 -13 5 -21 9 -11 9 -32 -1 -95 -11 -74 -14 -80 -33
-76 -13 4 -11 0 7 -10 74 -42 83 -162 18 -227 -26 -25 -35 -28 -94 -28 l-66 0
0 131 c0 74 -4 128 -9 125 -5 -3 -22 1 -37 9 -40 21 -65 19 -128 -9 -55 -24
-81 -24 -48 0 16 12 16 13 0 14 -9 0 -18 4 -20 9 -1 5 -19 12 -38 15 -23 5
-30 4 -21 -2 23 -16 -90 -21 -116 -5 -13 8 -24 9 -28 3 -3 -5 -19 -7 -35 -3
-19 3 -30 1 -30 -6 0 -6 11 -11 24 -11 14 0 28 -5 31 -11 4 -6 13 -8 21 -5 8
3 13 2 12 -2 -1 -4 3 -17 10 -30 12 -20 11 -22 -12 -22 -13 0 -26 6 -29 14 -3
7 -18 17 -33 20 -92 23 -150 -109 -79 -180 30 -30 73 -31 108 -4 26 21 57 27
57 11 0 -16 -59 -59 -90 -66 -40 -9 -99 21 -123 62 -42 74 -17 165 56 203 36
19 38 21 12 15 -60 -13 -184 -7 -209 11 -26 18 -46 18 -46 -1 0 -17 59 -35
119 -35 40 0 43 -2 36 -23 -4 -12 -9 -48 -12 -79 -5 -49 -2 -64 21 -104 14
-25 26 -48 26 -50 0 -2 -43 -4 -95 -4 -78 0 -95 -3 -95 -15 0 -13 83 -15 690
-15 l691 0 -3 158 -3 157 -23 -2 c-13 -2 -21 1 -17 7 3 6 -4 10 -16 10 -18 0
-19 -2 -9 -15 11 -13 8 -15 -21 -15 -19 0 -43 7 -53 15 -26 20 -38 19 -34 -2
4 -25 -38 -29 -63 -7 -17 15 -24 16 -39 6 -28 -17 -51 -15 -43 4 5 15 -14 14
-66 -2 -20 -6 -8 44 31 127 34 71 49 81 84 54 22 -17 54 -20 54 -5 0 6 -9 10
-19 10 -32 0 -35 20 -4 21 17 1 21 3 11 6 -29 7 -21 16 42 48 64 31 75 44 36
41 -13 0 -22 -4 -19 -8 9 -16 -18 -7 -37 12 -11 11 -24 20 -28 20 -15 0 -62
-25 -62 -32 0 -14 32 -9 44 7 9 12 14 11 35 -6 27 -22 21 -33 -29 -46 -14 -3
-29 -12 -35 -20 -5 -7 -22 -14 -36 -15 -19 -2 -25 -7 -21 -16 3 -10 0 -13 -9
-10 -24 8 -16 41 11 50 22 7 21 7 -7 5 -39 -4 -54 20 -18 29 40 10 48 29 20
44 -20 10 -28 11 -37 2 -9 -9 -7 -12 10 -12 26 0 29 -15 6 -24 -9 -4 -17 -5
-18 -4 -1 2 -8 11 -15 21 -11 14 -11 20 -1 32 11 13 10 14 -4 9 -9 -3 -16 -1
-16 5 0 14 -17 14 -25 1z m-395 -362 c0 -7 20 -68 44 -136 41 -117 42 -123 22
-120 -15 2 -24 14 -30 41 l-10 38 -50 -3 c-47 -3 -50 -5 -61 -38 -8 -22 -19
-36 -32 -38 -19 -3 -17 6 24 120 24 68 46 129 48 136 2 6 14 12 25 12 11 0 20
-6 20 -12z m209 -14 c12 -15 21 -31 21 -35 0 -17 -30 -9 -40 12 -7 13 -19 19
-33 17 -17 -2 -22 -10 -22 -33 0 -24 6 -33 36 -47 52 -24 64 -44 60 -101 -1
-25 -46 -67 -71 -67 -27 0 -70 43 -70 70 0 27 23 26 35 -3 12 -26 47 -34 64
-13 21 25 9 60 -26 77 -52 26 -63 39 -63 77 0 70 68 98 109 46z m384 12 c18
-47 87 -245 87 -250 0 -3 -8 -6 -18 -6 -13 0 -22 12 -31 40 -12 39 -12 40 -60
40 -47 0 -48 -1 -60 -40 -9 -30 -17 -40 -32 -40 -16 0 -19 4 -14 17 4 10 24
67 46 127 22 59 42 112 45 117 8 14 31 11 37 -5z m-694 -6 c10 0 -1 -60 -21
-115 -16 -43 -43 -56 -123 -59 -34 -1 -41 3 -53 28 -13 25 -12 33 2 62 18 39
44 44 96 18 35 -18 54 -13 74 19 8 12 7 23 -3 38 -11 19 -11 21 4 15 9 -3 20
-6 24 -6z m909 -127 l-3 -128 -45 -3 -45 -3 -38 117 c-20 65 -35 119 -32 122
3 3 33 7 67 9 34 2 64 6 67 8 2 3 10 5 18 5 11 0 13 -25 11 -127z m-200 -112
c3 -18 -1 -21 -37 -21 -44 0 -54 16 -26 44 20 20 59 6 63 -23z m-598 10 c15
-30 14 -31 -35 -31 -25 0 -45 3 -45 6 0 20 24 44 45 44 14 0 29 -8 35 -19z"/>
<path d="M501 229 c-7 -23 -15 -47 -18 -55 -4 -10 4 -14 31 -14 20 0 36 3 36
6 0 8 -32 104 -35 104 -1 0 -7 -18 -14 -41z"/>
<path d="M1107 260 c-3 -8 -10 -30 -16 -49 -15 -47 -15 -47 24 -48 19 -1 35 0
35 0 -8 36 -40 108 -43 97z"/>
<path d="M214 631 c10 -56 51 -136 95 -184 34 -37 39 -46 25 -51 -10 -4 -22 1
-29 11 -16 22 -29 12 -20 -16 8 -25 50 -29 63 -5 8 14 13 13 45 -6 20 -12 37
-26 37 -30 0 -4 9 -6 20 -3 16 4 9 10 -30 30 -28 14 -69 44 -92 66 -39 40 -98
146 -98 177 0 8 -5 22 -11 30 -8 11 -9 7 -5 -19z"/>
<path d="M680 629 c-7 -11 -9 -26 -7 -34 3 -7 0 -19 -6 -26 -7 -7 -3 -6 9 4
23 19 54 23 54 7 0 -6 8 -5 20 2 24 15 26 28 5 28 -20 0 -19 17 3 29 16 10 16
10 0 11 -9 0 -20 -5 -23 -10 -4 -7 -13 -7 -25 0 -15 8 -21 6 -30 -11z"/>
<path d="M815 570 c16 -18 26 -20 71 -14 48 5 53 4 78 -22 14 -16 26 -24 26
-18 0 7 -7 17 -15 24 -8 7 -15 21 -15 31 0 15 -6 17 -37 12 -21 -3 -39 -9 -41
-13 -1 -4 -14 -5 -27 -2 -14 2 -22 8 -19 13 3 5 -5 9 -17 9 -22 0 -22 0 -4
-20z"/>
<path d="M1211 571 c-19 -3 -37 -12 -39 -20 -3 -9 0 -12 10 -8 9 3 36 9 62 12
25 4 43 11 40 16 -6 10 -20 10 -73 0z"/>
<path d="M742 552 c-20 -13 15 -20 53 -11 17 4 23 7 15 8 -8 1 -24 4 -35 6
-11 3 -26 1 -33 -3z"/>
<path d="M805 515 c6 -2 27 -8 48 -14 33 -8 37 -8 26 5 -6 8 -27 14 -48 13
-20 0 -31 -2 -26 -4z"/>
<path d="M620 499 c0 -7 -16 -28 -36 -47 -43 -42 -37 -55 8 -17 32 27 56 75
37 75 -5 0 -9 -5 -9 -11z"/>
<path d="M1111 405 c-24 -12 -39 -25 -33 -29 6 -3 13 -2 17 4 3 5 17 10 31 10
14 0 24 6 24 14 0 8 12 17 28 19 25 4 25 4 2 4 -14 0 -45 -10 -69 -22z"/>
<path d="M210 403 c0 -6 5 -15 10 -18 6 -3 10 -1 10 4 0 6 7 11 15 11 8 0 15
4 15 9 0 5 -11 8 -25 7 -14 0 -25 -6 -25 -13z"/>
<path d="M1353 414 c3 -3 1 -17 -4 -31 -8 -21 -7 -24 7 -19 8 3 18 6 20 6 2 0
4 11 4 25 0 17 -6 25 -17 25 -9 0 -14 -3 -10 -6z"/>
<path d="M75 360 c-18 -20 -18 -20 31 -14 26 3 53 8 58 11 5 3 6 1 2 -5 -5 -8
0 -12 13 -12 33 0 24 27 -10 34 -53 10 -75 7 -94 -14z"/>
<path d="M840 179 l0 -102 42 6 c77 10 111 84 73 156 -16 33 -33 41 -81 41
l-34 0 0 -101z m80 51 c11 -11 20 -30 20 -43 0 -31 -27 -67 -51 -67 -17 0 -19
7 -19 58 0 77 12 90 50 52z"/>
</g>
</svg>
